<mxfile host="app.diagrams.net" agent="Mozilla/5.0 (Windows NT 10.0; Win64; x64; rv:138.0) Gecko/20100101 Firefox/138.0" version="27.0.5">
  <diagram id="C5RBs43oDa-KdzZeNtuy" name="Page-1">
    <mxGraphModel dx="3022" dy="1250" grid="1" gridSize="10" guides="1" tooltips="1" connect="1" arrows="1" fold="1" page="1" pageScale="1" pageWidth="827" pageHeight="1169" math="0" shadow="0">
      <root>
        <mxCell id="WIyWlLk6GJQsqaUBKTNV-0" />
        <mxCell id="WIyWlLk6GJQsqaUBKTNV-1" parent="WIyWlLk6GJQsqaUBKTNV-0" />
        <mxCell id="t4uff5RxA97OM5w_c7er-0" value="FindOrderScreen" style="swimlane;fontStyle=0;childLayout=stackLayout;horizontal=1;startSize=26;fillColor=light-dark(#006666,#006666);horizontalStack=0;resizeParent=1;resizeParentMax=0;resizeLast=0;collapsible=1;marginBottom=0;whiteSpace=wrap;html=1;" parent="WIyWlLk6GJQsqaUBKTNV-1" vertex="1">
          <mxGeometry x="-150" y="520" width="185" height="90" as="geometry" />
        </mxCell>
        <mxCell id="t4uff5RxA97OM5w_c7er-1" value="+ CurrentOrder: int id" style="text;strokeColor=none;fillColor=none;align=left;verticalAlign=top;spacingLeft=4;spacingRight=4;overflow=hidden;rotatable=0;points=[[0,0.5],[1,0.5]];portConstraint=eastwest;whiteSpace=wrap;html=1;" parent="t4uff5RxA97OM5w_c7er-0" vertex="1">
          <mxGeometry y="26" width="185" height="26" as="geometry" />
        </mxCell>
        <mxCell id="t4uff5RxA97OM5w_c7er-2" value="+ isConfirmed : &lt;br&gt;boolean Conf" style="text;strokeColor=none;fillColor=none;align=left;verticalAlign=top;spacingLeft=4;spacingRight=4;overflow=hidden;rotatable=0;points=[[0,0.5],[1,0.5]];portConstraint=eastwest;whiteSpace=wrap;html=1;" parent="t4uff5RxA97OM5w_c7er-0" vertex="1">
          <mxGeometry y="52" width="185" height="38" as="geometry" />
        </mxCell>
        <mxCell id="t4uff5RxA97OM5w_c7er-3" value="&lt;u&gt;confirmation Interface&lt;/u&gt;" style="text;align=center;fontStyle=1;verticalAlign=middle;spacingLeft=3;spacingRight=3;strokeColor=none;rotatable=0;points=[[0,0.5],[1,0.5]];portConstraint=eastwest;html=1;" parent="WIyWlLk6GJQsqaUBKTNV-1" vertex="1">
          <mxGeometry x="-120" y="450" width="130" height="50" as="geometry" />
        </mxCell>
        <mxCell id="t4uff5RxA97OM5w_c7er-4" value="Producer" style="swimlane;fontStyle=0;childLayout=stackLayout;horizontal=1;startSize=26;fillColor=light-dark(#006666,#006666);horizontalStack=0;resizeParent=1;resizeParentMax=0;resizeLast=0;collapsible=1;marginBottom=0;whiteSpace=wrap;html=1;" parent="WIyWlLk6GJQsqaUBKTNV-1" vertex="1">
          <mxGeometry x="540" y="820" width="180" height="140" as="geometry">
            <mxRectangle x="370" y="533" width="90" height="30" as="alternateBounds" />
          </mxGeometry>
        </mxCell>
        <mxCell id="t4uff5RxA97OM5w_c7er-5" value="+producerId :int" style="text;strokeColor=none;fillColor=none;align=left;verticalAlign=top;spacingLeft=4;spacingRight=4;overflow=hidden;rotatable=0;points=[[0,0.5],[1,0.5]];portConstraint=eastwest;whiteSpace=wrap;html=1;" parent="t4uff5RxA97OM5w_c7er-4" vertex="1">
          <mxGeometry y="26" width="180" height="26" as="geometry" />
        </mxCell>
        <mxCell id="t4uff5RxA97OM5w_c7er-6" value="+ Fullname: String" style="text;strokeColor=none;fillColor=none;align=left;verticalAlign=top;spacingLeft=4;spacingRight=4;overflow=hidden;rotatable=0;points=[[0,0.5],[1,0.5]];portConstraint=eastwest;whiteSpace=wrap;html=1;" parent="t4uff5RxA97OM5w_c7er-4" vertex="1">
          <mxGeometry y="52" width="180" height="26" as="geometry" />
        </mxCell>
        <mxCell id="t4uff5RxA97OM5w_c7er-7" value="+ contactInfo :int" style="text;strokeColor=none;fillColor=none;align=left;verticalAlign=top;spacingLeft=4;spacingRight=4;overflow=hidden;rotatable=0;points=[[0,0.5],[1,0.5]];portConstraint=eastwest;whiteSpace=wrap;html=1;" parent="t4uff5RxA97OM5w_c7er-4" vertex="1">
          <mxGeometry y="78" width="180" height="22" as="geometry" />
        </mxCell>
        <mxCell id="t4uff5RxA97OM5w_c7er-8" value="+availableIngredients:&lt;br&gt;List&amp;lt;Ingredients&amp;gt;" style="text;strokeColor=none;fillColor=none;align=left;verticalAlign=top;spacingLeft=4;spacingRight=4;overflow=hidden;rotatable=0;points=[[0,0.5],[1,0.5]];portConstraint=eastwest;whiteSpace=wrap;html=1;" parent="t4uff5RxA97OM5w_c7er-4" vertex="1">
          <mxGeometry y="100" width="180" height="40" as="geometry" />
        </mxCell>
        <mxCell id="t4uff5RxA97OM5w_c7er-9" value="Ingredients" style="swimlane;fontStyle=0;childLayout=stackLayout;horizontal=1;startSize=26;fillColor=light-dark(#006666,#006666);horizontalStack=0;resizeParent=1;resizeParentMax=0;resizeLast=0;collapsible=1;marginBottom=0;whiteSpace=wrap;html=1;" parent="WIyWlLk6GJQsqaUBKTNV-1" vertex="1">
          <mxGeometry x="560" y="1018" width="140" height="52" as="geometry" />
        </mxCell>
        <mxCell id="t4uff5RxA97OM5w_c7er-10" value="-Name:String" style="text;strokeColor=none;fillColor=none;align=left;verticalAlign=top;spacingLeft=4;spacingRight=4;overflow=hidden;rotatable=0;points=[[0,0.5],[1,0.5]];portConstraint=eastwest;whiteSpace=wrap;html=1;" parent="t4uff5RxA97OM5w_c7er-9" vertex="1">
          <mxGeometry y="26" width="140" height="26" as="geometry" />
        </mxCell>
        <mxCell id="t4uff5RxA97OM5w_c7er-11" value="Order" style="swimlane;fontStyle=0;childLayout=stackLayout;horizontal=1;startSize=26;fillColor=light-dark(#006666,#006666);horizontalStack=0;resizeParent=1;resizeParentMax=0;resizeLast=0;collapsible=1;marginBottom=0;whiteSpace=wrap;html=1;" parent="WIyWlLk6GJQsqaUBKTNV-1" vertex="1">
          <mxGeometry x="80" y="820" width="195" height="198" as="geometry" />
        </mxCell>
        <mxCell id="t4uff5RxA97OM5w_c7er-12" value="+ orderId: int" style="text;strokeColor=none;fillColor=none;align=left;verticalAlign=top;spacingLeft=4;spacingRight=4;overflow=hidden;rotatable=0;points=[[0,0.5],[1,0.5]];portConstraint=eastwest;whiteSpace=wrap;html=1;" parent="t4uff5RxA97OM5w_c7er-11" vertex="1">
          <mxGeometry y="26" width="195" height="26" as="geometry" />
        </mxCell>
        <mxCell id="t4uff5RxA97OM5w_c7er-13" value="+ producer :producerId(Producer)&amp;nbsp;" style="text;strokeColor=none;fillColor=none;align=left;verticalAlign=top;spacingLeft=4;spacingRight=4;overflow=hidden;rotatable=0;points=[[0,0.5],[1,0.5]];portConstraint=eastwest;whiteSpace=wrap;html=1;" parent="t4uff5RxA97OM5w_c7er-11" vertex="1">
          <mxGeometry y="52" width="195" height="38" as="geometry" />
        </mxCell>
        <mxCell id="t4uff5RxA97OM5w_c7er-14" value="+ Ingredients:&lt;br&gt;Map&amp;lt;Ingredients,quantity&amp;gt;" style="text;strokeColor=none;fillColor=none;align=left;verticalAlign=top;spacingLeft=4;spacingRight=4;overflow=hidden;rotatable=0;points=[[0,0.5],[1,0.5]];portConstraint=eastwest;whiteSpace=wrap;html=1;" parent="t4uff5RxA97OM5w_c7er-11" vertex="1">
          <mxGeometry y="90" width="195" height="40" as="geometry" />
        </mxCell>
        <mxCell id="t4uff5RxA97OM5w_c7er-15" value="+ orderDate : Date" style="text;strokeColor=none;fillColor=none;align=left;verticalAlign=top;spacingLeft=4;spacingRight=4;overflow=hidden;rotatable=0;points=[[0,0.5],[1,0.5]];portConstraint=eastwest;whiteSpace=wrap;html=1;" parent="t4uff5RxA97OM5w_c7er-11" vertex="1">
          <mxGeometry y="130" width="195" height="30" as="geometry" />
        </mxCell>
        <mxCell id="t4uff5RxA97OM5w_c7er-16" value="+ status: &lt;br&gt;&amp;nbsp;String(&quot;Confirmed&quot;,&quot;Canceld&quot;)&amp;nbsp;" style="text;strokeColor=none;fillColor=none;align=left;verticalAlign=top;spacingLeft=4;spacingRight=4;overflow=hidden;rotatable=0;points=[[0,0.5],[1,0.5]];portConstraint=eastwest;whiteSpace=wrap;html=1;" parent="t4uff5RxA97OM5w_c7er-11" vertex="1">
          <mxGeometry y="160" width="195" height="38" as="geometry" />
        </mxCell>
        <mxCell id="t4uff5RxA97OM5w_c7er-17" value="OrderManager" style="swimlane;fontStyle=0;childLayout=stackLayout;horizontal=1;startSize=26;fillColor=light-dark(#006666,#006666);horizontalStack=0;resizeParent=1;resizeParentMax=0;resizeLast=0;collapsible=1;marginBottom=0;whiteSpace=wrap;html=1;" parent="WIyWlLk6GJQsqaUBKTNV-1" vertex="1">
          <mxGeometry x="150" y="530" width="170" height="70" as="geometry" />
        </mxCell>
        <mxCell id="t4uff5RxA97OM5w_c7er-18" value="+ currentOrder : orderId(Order)" style="text;strokeColor=none;fillColor=none;align=left;verticalAlign=top;spacingLeft=4;spacingRight=4;overflow=hidden;rotatable=0;points=[[0,0.5],[1,0.5]];portConstraint=eastwest;whiteSpace=wrap;html=1;" parent="t4uff5RxA97OM5w_c7er-17" vertex="1">
          <mxGeometry y="26" width="170" height="44" as="geometry" />
        </mxCell>
        <mxCell id="t4uff5RxA97OM5w_c7er-19" value="Chef" style="swimlane;fontStyle=0;childLayout=stackLayout;horizontal=1;startSize=26;fillColor=light-dark(#006666,#006666);horizontalStack=0;resizeParent=1;resizeParentMax=0;resizeLast=0;collapsible=1;marginBottom=0;whiteSpace=wrap;html=1;" parent="WIyWlLk6GJQsqaUBKTNV-1" vertex="1">
          <mxGeometry x="-470" y="168" width="140" height="52" as="geometry" />
        </mxCell>
        <mxCell id="t4uff5RxA97OM5w_c7er-20" value="&lt;span style=&quot;font-weight: 400;&quot;&gt;OrderIngredientsScreen&lt;/span&gt;" style="swimlane;fontStyle=1;align=center;verticalAlign=top;childLayout=stackLayout;horizontal=1;startSize=30;horizontalStack=0;resizeParent=1;resizeParentMax=0;resizeLast=0;collapsible=1;marginBottom=0;whiteSpace=wrap;html=1;fillColor=light-dark(#FFFFFF,#006666);" parent="WIyWlLk6GJQsqaUBKTNV-1" vertex="1">
          <mxGeometry x="110" y="170" width="240" height="238" as="geometry" />
        </mxCell>
        <mxCell id="t4uff5RxA97OM5w_c7er-21" value="+ availableProduc:&lt;br&gt;List&amp;lt;Producers&amp;gt;" style="text;strokeColor=none;fillColor=none;align=left;verticalAlign=top;spacingLeft=4;spacingRight=4;overflow=hidden;rotatable=0;points=[[0,0.5],[1,0.5]];portConstraint=eastwest;whiteSpace=wrap;html=1;" parent="t4uff5RxA97OM5w_c7er-20" vertex="1">
          <mxGeometry y="30" width="240" height="44" as="geometry" />
        </mxCell>
        <mxCell id="t4uff5RxA97OM5w_c7er-22" value="+ availableIngredients:&lt;br&gt;List&amp;lt;Ingredients&amp;gt;" style="text;strokeColor=none;fillColor=none;align=left;verticalAlign=top;spacingLeft=4;spacingRight=4;overflow=hidden;rotatable=0;points=[[0,0.5],[1,0.5]];portConstraint=eastwest;whiteSpace=wrap;html=1;" parent="t4uff5RxA97OM5w_c7er-20" vertex="1">
          <mxGeometry y="74" width="240" height="40" as="geometry" />
        </mxCell>
        <mxCell id="t4uff5RxA97OM5w_c7er-23" value="+ producerId : int" style="text;strokeColor=none;fillColor=none;align=left;verticalAlign=top;spacingLeft=4;spacingRight=4;overflow=hidden;rotatable=0;points=[[0,0.5],[1,0.5]];portConstraint=eastwest;whiteSpace=wrap;html=1;" parent="t4uff5RxA97OM5w_c7er-20" vertex="1">
          <mxGeometry y="114" width="240" height="30" as="geometry" />
        </mxCell>
        <mxCell id="t4uff5RxA97OM5w_c7er-24" value="+ selectedIngredients : Map&amp;lt;Ingredients,quantity&amp;gt;" style="text;strokeColor=none;fillColor=none;align=left;verticalAlign=top;spacingLeft=4;spacingRight=4;overflow=hidden;rotatable=0;points=[[0,0.5],[1,0.5]];portConstraint=eastwest;whiteSpace=wrap;html=1;" parent="t4uff5RxA97OM5w_c7er-20" vertex="1">
          <mxGeometry y="144" width="240" height="60" as="geometry" />
        </mxCell>
        <mxCell id="t4uff5RxA97OM5w_c7er-25" value="" style="line;strokeWidth=1;fillColor=none;align=left;verticalAlign=middle;spacingTop=-1;spacingLeft=3;spacingRight=3;rotatable=0;labelPosition=right;points=[];portConstraint=eastwest;strokeColor=inherit;" parent="t4uff5RxA97OM5w_c7er-20" vertex="1">
          <mxGeometry y="204" width="240" height="8" as="geometry" />
        </mxCell>
        <mxCell id="t4uff5RxA97OM5w_c7er-26" value="+ method(type): type" style="text;strokeColor=none;fillColor=none;align=left;verticalAlign=top;spacingLeft=4;spacingRight=4;overflow=hidden;rotatable=0;points=[[0,0.5],[1,0.5]];portConstraint=eastwest;whiteSpace=wrap;html=1;" parent="t4uff5RxA97OM5w_c7er-20" vertex="1">
          <mxGeometry y="212" width="240" height="26" as="geometry" />
        </mxCell>
        <mxCell id="t4uff5RxA97OM5w_c7er-27" value="" style="endArrow=none;html=1;edgeStyle=orthogonalEdgeStyle;rounded=0;entryX=0.447;entryY=0.014;entryDx=0;entryDy=0;entryPerimeter=0;exitX=0.498;exitY=1.044;exitDx=0;exitDy=0;exitPerimeter=0;" parent="WIyWlLk6GJQsqaUBKTNV-1" source="t4uff5RxA97OM5w_c7er-26" target="t4uff5RxA97OM5w_c7er-17" edge="1">
          <mxGeometry relative="1" as="geometry">
            <mxPoint x="230" y="430" as="sourcePoint" />
            <mxPoint x="420" y="482" as="targetPoint" />
            <Array as="points">
              <mxPoint x="226" y="409" />
            </Array>
          </mxGeometry>
        </mxCell>
        <mxCell id="t4uff5RxA97OM5w_c7er-28" value="" style="endArrow=none;html=1;edgeStyle=orthogonalEdgeStyle;rounded=0;entryX=0;entryY=0.5;entryDx=0;entryDy=0;" parent="WIyWlLk6GJQsqaUBKTNV-1" target="t4uff5RxA97OM5w_c7er-6" edge="1">
          <mxGeometry relative="1" as="geometry">
            <mxPoint x="275" y="880" as="sourcePoint" />
            <mxPoint x="435" y="880" as="targetPoint" />
            <Array as="points">
              <mxPoint x="540" y="880" />
            </Array>
          </mxGeometry>
        </mxCell>
        <mxCell id="t4uff5RxA97OM5w_c7er-29" value="" style="endArrow=none;html=1;edgeStyle=orthogonalEdgeStyle;rounded=0;entryX=0;entryY=0.25;entryDx=0;entryDy=0;" parent="WIyWlLk6GJQsqaUBKTNV-1" target="t4uff5RxA97OM5w_c7er-9" edge="1">
          <mxGeometry relative="1" as="geometry">
            <mxPoint x="275" y="935" as="sourcePoint" />
            <mxPoint x="560" y="994.5" as="targetPoint" />
            <Array as="points">
              <mxPoint x="480" y="935" />
              <mxPoint x="480" y="1030" />
            </Array>
          </mxGeometry>
        </mxCell>
        <mxCell id="t4uff5RxA97OM5w_c7er-30" value="manages" style="text;html=1;align=center;verticalAlign=middle;resizable=0;points=[];autosize=1;strokeColor=none;fillColor=none;" parent="WIyWlLk6GJQsqaUBKTNV-1" vertex="1">
          <mxGeometry x="220" y="450" width="70" height="30" as="geometry" />
        </mxCell>
        <mxCell id="t4uff5RxA97OM5w_c7er-31" value="1" style="text;html=1;align=center;verticalAlign=middle;resizable=0;points=[];autosize=1;strokeColor=none;fillColor=none;" parent="WIyWlLk6GJQsqaUBKTNV-1" vertex="1">
          <mxGeometry x="230" y="408" width="30" height="30" as="geometry" />
        </mxCell>
        <mxCell id="t4uff5RxA97OM5w_c7er-32" value="1" style="text;html=1;align=center;verticalAlign=middle;resizable=0;points=[];autosize=1;strokeColor=none;fillColor=none;" parent="WIyWlLk6GJQsqaUBKTNV-1" vertex="1">
          <mxGeometry x="220" y="500" width="30" height="30" as="geometry" />
        </mxCell>
        <mxCell id="t4uff5RxA97OM5w_c7er-33" value="handles" style="text;html=1;align=center;verticalAlign=middle;resizable=0;points=[];autosize=1;strokeColor=none;fillColor=none;" parent="WIyWlLk6GJQsqaUBKTNV-1" vertex="1">
          <mxGeometry x="150" y="680" width="70" height="30" as="geometry" />
        </mxCell>
        <mxCell id="t4uff5RxA97OM5w_c7er-34" value="1" style="text;html=1;align=center;verticalAlign=middle;resizable=0;points=[];autosize=1;strokeColor=none;fillColor=none;" parent="WIyWlLk6GJQsqaUBKTNV-1" vertex="1">
          <mxGeometry x="150" y="780" width="30" height="30" as="geometry" />
        </mxCell>
        <mxCell id="t4uff5RxA97OM5w_c7er-35" value="Supplied by" style="text;html=1;align=center;verticalAlign=middle;resizable=0;points=[];autosize=1;strokeColor=none;fillColor=none;" parent="WIyWlLk6GJQsqaUBKTNV-1" vertex="1">
          <mxGeometry x="369" y="850" width="90" height="30" as="geometry" />
        </mxCell>
        <mxCell id="t4uff5RxA97OM5w_c7er-36" value="1" style="text;html=1;align=center;verticalAlign=middle;resizable=0;points=[];autosize=1;strokeColor=none;fillColor=none;" parent="WIyWlLk6GJQsqaUBKTNV-1" vertex="1">
          <mxGeometry x="280" y="850" width="30" height="30" as="geometry" />
        </mxCell>
        <mxCell id="t4uff5RxA97OM5w_c7er-37" value="1" style="text;html=1;align=center;verticalAlign=middle;resizable=0;points=[];autosize=1;strokeColor=none;fillColor=none;" parent="WIyWlLk6GJQsqaUBKTNV-1" vertex="1">
          <mxGeometry x="510" y="850" width="30" height="30" as="geometry" />
        </mxCell>
        <mxCell id="t4uff5RxA97OM5w_c7er-38" value="Contains" style="text;html=1;align=center;verticalAlign=middle;resizable=0;points=[];autosize=1;strokeColor=none;fillColor=none;" parent="WIyWlLk6GJQsqaUBKTNV-1" vertex="1">
          <mxGeometry x="390" y="940" width="70" height="30" as="geometry" />
        </mxCell>
        <mxCell id="t4uff5RxA97OM5w_c7er-39" value="1" style="text;html=1;align=center;verticalAlign=middle;resizable=0;points=[];autosize=1;strokeColor=none;fillColor=none;" parent="WIyWlLk6GJQsqaUBKTNV-1" vertex="1">
          <mxGeometry x="275" y="940" width="30" height="30" as="geometry" />
        </mxCell>
        <mxCell id="t4uff5RxA97OM5w_c7er-40" value="n" style="text;html=1;align=center;verticalAlign=middle;resizable=0;points=[];autosize=1;strokeColor=none;fillColor=none;" parent="WIyWlLk6GJQsqaUBKTNV-1" vertex="1">
          <mxGeometry x="530" y="1034" width="30" height="30" as="geometry" />
        </mxCell>
        <mxCell id="t4uff5RxA97OM5w_c7er-41" value="" style="endArrow=none;html=1;edgeStyle=orthogonalEdgeStyle;rounded=0;entryX=0;entryY=0.5;entryDx=0;entryDy=0;exitX=0.665;exitY=1.079;exitDx=0;exitDy=0;exitPerimeter=0;" parent="WIyWlLk6GJQsqaUBKTNV-1" source="t4uff5RxA97OM5w_c7er-2" edge="1">
          <mxGeometry relative="1" as="geometry">
            <mxPoint x="-185" y="840" as="sourcePoint" />
            <mxPoint x="80" y="845" as="targetPoint" />
            <Array as="points">
              <mxPoint x="-27" y="710" />
              <mxPoint x="-197" y="710" />
              <mxPoint x="-197" y="840" />
              <mxPoint x="80" y="840" />
            </Array>
          </mxGeometry>
        </mxCell>
        <mxCell id="t4uff5RxA97OM5w_c7er-42" value="Displays" style="text;html=1;align=center;verticalAlign=middle;resizable=0;points=[];autosize=1;strokeColor=none;fillColor=none;" parent="WIyWlLk6GJQsqaUBKTNV-1" vertex="1">
          <mxGeometry x="-90" y="800" width="70" height="30" as="geometry" />
        </mxCell>
        <mxCell id="t4uff5RxA97OM5w_c7er-43" value="1" style="text;html=1;align=center;verticalAlign=middle;resizable=0;points=[];autosize=1;strokeColor=none;fillColor=none;" parent="WIyWlLk6GJQsqaUBKTNV-1" vertex="1">
          <mxGeometry x="-200" y="740" width="30" height="30" as="geometry" />
        </mxCell>
        <mxCell id="t4uff5RxA97OM5w_c7er-44" value="1" style="text;html=1;align=center;verticalAlign=middle;resizable=0;points=[];autosize=1;strokeColor=none;fillColor=none;" parent="WIyWlLk6GJQsqaUBKTNV-1" vertex="1">
          <mxGeometry x="50" y="810" width="30" height="30" as="geometry" />
        </mxCell>
        <mxCell id="t4uff5RxA97OM5w_c7er-45" value="" style="endArrow=none;html=1;edgeStyle=orthogonalEdgeStyle;rounded=0;exitX=0.89;exitY=0.016;exitDx=0;exitDy=0;exitPerimeter=0;entryX=1;entryY=0.5;entryDx=0;entryDy=0;" parent="WIyWlLk6GJQsqaUBKTNV-1" source="t4uff5RxA97OM5w_c7er-4" target="t4uff5RxA97OM5w_c7er-21" edge="1">
          <mxGeometry relative="1" as="geometry">
            <mxPoint x="590" y="700" as="sourcePoint" />
            <mxPoint x="892.3529411764706" y="220" as="targetPoint" />
            <Array as="points">
              <mxPoint x="700" y="222" />
            </Array>
          </mxGeometry>
        </mxCell>
        <mxCell id="t4uff5RxA97OM5w_c7er-46" value="" style="endArrow=none;html=1;edgeStyle=orthogonalEdgeStyle;rounded=0;entryX=1;entryY=0.5;entryDx=0;entryDy=0;" parent="WIyWlLk6GJQsqaUBKTNV-1" source="t4uff5RxA97OM5w_c7er-9" edge="1">
          <mxGeometry relative="1" as="geometry">
            <mxPoint x="704" y="868.9300000000001" as="sourcePoint" />
            <mxPoint x="354" y="268.93" as="targetPoint" />
            <Array as="points">
              <mxPoint x="764" y="1034" />
              <mxPoint x="764" y="269" />
            </Array>
          </mxGeometry>
        </mxCell>
        <mxCell id="t4uff5RxA97OM5w_c7er-47" value="1" style="text;html=1;align=center;verticalAlign=middle;resizable=0;points=[];autosize=1;strokeColor=none;fillColor=none;" parent="WIyWlLk6GJQsqaUBKTNV-1" vertex="1">
          <mxGeometry x="360" y="190" width="30" height="30" as="geometry" />
        </mxCell>
        <mxCell id="t4uff5RxA97OM5w_c7er-48" value="1" style="text;html=1;align=center;verticalAlign=middle;resizable=0;points=[];autosize=1;strokeColor=none;fillColor=none;" parent="WIyWlLk6GJQsqaUBKTNV-1" vertex="1">
          <mxGeometry x="660" y="780" width="30" height="30" as="geometry" />
        </mxCell>
        <mxCell id="t4uff5RxA97OM5w_c7er-49" value="1" style="text;html=1;align=center;verticalAlign=middle;resizable=0;points=[];autosize=1;strokeColor=none;fillColor=none;" parent="WIyWlLk6GJQsqaUBKTNV-1" vertex="1">
          <mxGeometry x="360" y="240" width="30" height="30" as="geometry" />
        </mxCell>
        <mxCell id="t4uff5RxA97OM5w_c7er-50" value="n" style="text;html=1;align=center;verticalAlign=middle;resizable=0;points=[];autosize=1;strokeColor=none;fillColor=none;" parent="WIyWlLk6GJQsqaUBKTNV-1" vertex="1">
          <mxGeometry x="730" y="1034" width="30" height="30" as="geometry" />
        </mxCell>
        <mxCell id="t4uff5RxA97OM5w_c7er-51" value="Use" style="endArrow=open;endSize=12;dashed=1;html=1;rounded=0;entryX=-0.009;entryY=0.086;entryDx=0;entryDy=0;entryPerimeter=0;exitX=1;exitY=0.423;exitDx=0;exitDy=0;exitPerimeter=0;" parent="WIyWlLk6GJQsqaUBKTNV-1" source="t4uff5RxA97OM5w_c7er-19" target="t4uff5RxA97OM5w_c7er-20" edge="1">
          <mxGeometry width="160" relative="1" as="geometry">
            <mxPoint x="-320" y="190" as="sourcePoint" />
            <mxPoint x="-105" y="193.41" as="targetPoint" />
          </mxGeometry>
        </mxCell>
        <mxCell id="t4uff5RxA97OM5w_c7er-52" value="places" style="text;html=1;align=center;verticalAlign=middle;resizable=0;points=[];autosize=1;strokeColor=none;fillColor=none;" parent="WIyWlLk6GJQsqaUBKTNV-1" vertex="1">
          <mxGeometry x="-430" y="840" width="60" height="30" as="geometry" />
        </mxCell>
        <mxCell id="t4uff5RxA97OM5w_c7er-53" value="1" style="text;html=1;align=center;verticalAlign=middle;resizable=0;points=[];autosize=1;strokeColor=none;fillColor=none;" parent="WIyWlLk6GJQsqaUBKTNV-1" vertex="1">
          <mxGeometry x="-430" y="220" width="30" height="30" as="geometry" />
        </mxCell>
        <mxCell id="t4uff5RxA97OM5w_c7er-54" value="n" style="text;html=1;align=center;verticalAlign=middle;resizable=0;points=[];autosize=1;strokeColor=none;fillColor=none;" parent="WIyWlLk6GJQsqaUBKTNV-1" vertex="1">
          <mxGeometry x="40" y="910" width="30" height="30" as="geometry" />
        </mxCell>
        <mxCell id="t4uff5RxA97OM5w_c7er-55" value="1" style="endArrow=open;html=1;endSize=12;startArrow=diamondThin;startSize=14;startFill=0;edgeStyle=orthogonalEdgeStyle;align=left;verticalAlign=bottom;rounded=0;exitX=0.276;exitY=1.068;exitDx=0;exitDy=0;exitPerimeter=0;" parent="WIyWlLk6GJQsqaUBKTNV-1" source="t4uff5RxA97OM5w_c7er-18" edge="1">
          <mxGeometry x="-1" y="3" relative="1" as="geometry">
            <mxPoint x="20" y="664.5" as="sourcePoint" />
            <mxPoint x="130" y="810" as="targetPoint" />
            <Array as="points">
              <mxPoint x="197" y="640" />
              <mxPoint x="131" y="640" />
            </Array>
          </mxGeometry>
        </mxCell>
        <mxCell id="t4uff5RxA97OM5w_c7er-56" value="CancelScreen" style="swimlane;fontStyle=0;childLayout=stackLayout;horizontal=1;startSize=26;fillColor=light-dark(#006666,#006666);horizontalStack=0;resizeParent=1;resizeParentMax=0;resizeLast=0;collapsible=1;marginBottom=0;whiteSpace=wrap;html=1;" parent="WIyWlLk6GJQsqaUBKTNV-1" vertex="1">
          <mxGeometry x="-370" y="420" width="185" height="90" as="geometry" />
        </mxCell>
        <mxCell id="t4uff5RxA97OM5w_c7er-57" value="+ CurrentOrder: int id" style="text;strokeColor=none;fillColor=none;align=left;verticalAlign=top;spacingLeft=4;spacingRight=4;overflow=hidden;rotatable=0;points=[[0,0.5],[1,0.5]];portConstraint=eastwest;whiteSpace=wrap;html=1;" parent="t4uff5RxA97OM5w_c7er-56" vertex="1">
          <mxGeometry y="26" width="185" height="26" as="geometry" />
        </mxCell>
        <mxCell id="t4uff5RxA97OM5w_c7er-58" value="+ isConfirmed : &lt;br&gt;boolean Conf" style="text;strokeColor=none;fillColor=none;align=left;verticalAlign=top;spacingLeft=4;spacingRight=4;overflow=hidden;rotatable=0;points=[[0,0.5],[1,0.5]];portConstraint=eastwest;whiteSpace=wrap;html=1;" parent="t4uff5RxA97OM5w_c7er-56" vertex="1">
          <mxGeometry y="52" width="185" height="38" as="geometry" />
        </mxCell>
        <mxCell id="t4uff5RxA97OM5w_c7er-59" value="Extends" style="endArrow=block;endSize=16;endFill=0;html=1;rounded=0;entryX=0.486;entryY=1;entryDx=0;entryDy=0;entryPerimeter=0;exitX=-0.008;exitY=0.811;exitDx=0;exitDy=0;exitPerimeter=0;" parent="WIyWlLk6GJQsqaUBKTNV-1" source="t4uff5RxA97OM5w_c7er-2" target="t4uff5RxA97OM5w_c7er-58" edge="1">
          <mxGeometry width="160" relative="1" as="geometry">
            <mxPoint x="-360" y="600" as="sourcePoint" />
            <mxPoint x="-200" y="600" as="targetPoint" />
          </mxGeometry>
        </mxCell>
        <mxCell id="t4uff5RxA97OM5w_c7er-60" style="edgeStyle=orthogonalEdgeStyle;rounded=0;orthogonalLoop=1;jettySize=auto;html=1;entryX=-0.015;entryY=0.7;entryDx=0;entryDy=0;entryPerimeter=0;" parent="WIyWlLk6GJQsqaUBKTNV-1" source="t4uff5RxA97OM5w_c7er-19" target="t4uff5RxA97OM5w_c7er-14" edge="1">
          <mxGeometry relative="1" as="geometry">
            <Array as="points">
              <mxPoint x="-430" y="938" />
            </Array>
          </mxGeometry>
        </mxCell>
        <mxCell id="PBNnNokdA2dlrOg4FgTL-0" value="&lt;p style=&quot;margin:0px;margin-top:4px;text-align:center;&quot;&gt;&lt;b&gt;&lt;font style=&quot;font-size: 11px;&quot; face=&quot;Verdana&quot;&gt;LogFishScreen&lt;/font&gt;&lt;/b&gt;&lt;/p&gt;&lt;hr size=&quot;1&quot; style=&quot;border-style:solid;&quot;&gt;&lt;div style=&quot;text-align: center; text-wrap-mode: nowrap;&quot;&gt;&lt;b&gt;&lt;font style=&quot;font-size: 11px;&quot; face=&quot;Verdana&quot;&gt;-List&amp;nbsp;&lt;span style=&quot;background-color: transparent; color: light-dark(rgb(0, 0, 0), rgb(255, 255, 255));&quot;&gt;availableTypes :String&lt;/span&gt;&lt;/font&gt;&lt;/b&gt;&lt;/div&gt;&lt;div style=&quot;text-align: center; text-wrap-mode: nowrap;&quot;&gt;&lt;b&gt;&lt;font style=&quot;font-size: 11px;&quot; face=&quot;Verdana&quot;&gt;- LocalDate :currentDate&lt;/font&gt;&lt;/b&gt;&lt;/div&gt;&lt;div style=&quot;text-align: center; text-wrap-mode: nowrap;&quot;&gt;&lt;b&gt;&lt;font style=&quot;font-size: 11px;&quot; face=&quot;Verdana&quot;&gt;- Map&amp;nbsp;&lt;span style=&quot;background-color: transparent; color: light-dark(rgb(0, 0, 0), rgb(255, 255, 255));&quot;&gt;availableNames :&lt;/span&gt;&lt;span style=&quot;background-color: transparent; color: light-dark(rgb(0, 0, 0), rgb(255, 255, 255));&quot;&gt;&amp;lt;String, String&amp;gt;&amp;nbsp;&lt;br&gt;&lt;/span&gt;&lt;span style=&quot;background-color: transparent; color: light-dark(rgb(0, 0, 0), rgb(255, 255, 255));&quot;&gt;- logId: int&lt;/span&gt;&lt;/font&gt;&lt;/b&gt;&lt;/div&gt;&lt;hr size=&quot;1&quot; style=&quot;border-style:solid;&quot;&gt;&lt;pre style=&quot;text-align: center;&quot;&gt;&lt;b&gt;&lt;font style=&quot;font-size: 11px;&quot; face=&quot;Verdana&quot;&gt;+initializeLogging() &lt;font style=&quot;background-color: transparent; color: light-dark(rgb(0, 0, 0), rgb(255, 255, 255)); white-space: normal;&quot;&gt;:&lt;/font&gt;&lt;span style=&quot;background-color: transparent; color: light-dark(rgb(0, 0, 0), rgb(255, 255, 255)); white-space: normal;&quot;&gt;void&lt;/span&gt;&lt;br&gt;+ fetchFishTypes() &lt;font style=&quot;background-color: transparent; color: light-dark(rgb(0, 0, 0), rgb(255, 255, 255)); white-space: normal;&quot;&gt;:&lt;/font&gt;&lt;span style=&quot;background-color: transparent; color: light-dark(rgb(0, 0, 0), rgb(255, 255, 255)); white-space: normal;&quot;&gt;void&lt;/span&gt;&lt;br&gt;+  onTypeSelected(FishType type) &lt;font style=&quot;background-color: transparent; color: light-dark(rgb(0, 0, 0), rgb(255, 255, 255)); white-space: normal;&quot;&gt;:&lt;/font&gt;&lt;span style=&quot;background-color: transparent; color: light-dark(rgb(0, 0, 0), rgb(255, 255, 255)); white-space: normal;&quot;&gt;void&lt;/span&gt;&lt;br&gt;+ onDateEntered(LocalDate date) &lt;font style=&quot;background-color: transparent; color: light-dark(rgb(0, 0, 0), rgb(255, 255, 255)); white-space: normal;&quot;&gt;:&lt;/font&gt;&lt;span style=&quot;background-color: transparent; color: light-dark(rgb(0, 0, 0), rgb(255, 255, 255)); white-space: normal;&quot;&gt;void&lt;/span&gt;&lt;br&gt;+ onNameSelected(String name) &lt;font style=&quot;background-color: transparent; color: light-dark(rgb(0, 0, 0), rgb(255, 255, 255)); white-space: normal;&quot;&gt;:&lt;/font&gt;&lt;span style=&quot;background-color: transparent; color: light-dark(rgb(0, 0, 0), rgb(255, 255, 255)); white-space: normal;&quot;&gt;void&lt;/span&gt;&lt;br&gt;+  onQuantityEntered(int quantity) &lt;font style=&quot;background-color: transparent; color: light-dark(rgb(0, 0, 0), rgb(255, 255, 255)); white-space: normal;&quot;&gt;:&lt;/font&gt;&lt;span style=&quot;background-color: transparent; color: light-dark(rgb(0, 0, 0), rgb(255, 255, 255)); white-space: normal;&quot;&gt;void&lt;/span&gt;&lt;br&gt;+ onWeightEntered(double weight)&lt;font style=&quot;background-color: transparent; color: light-dark(rgb(0, 0, 0), rgb(255, 255, 255)); white-space: normal;&quot;&gt;:&lt;/font&gt;&lt;span style=&quot;background-color: transparent; color: light-dark(rgb(0, 0, 0), rgb(255, 255, 255)); white-space: normal;&quot;&gt;void&lt;/span&gt; &lt;br&gt;+&lt;font style=&quot;background-color: transparent; color: light-dark(rgb(0, 0, 0), rgb(255, 255, 255)); white-space: normal;&quot;&gt; validateAndFinish()&lt;/font&gt;&lt;font style=&quot;background-color: transparent; color: light-dark(rgb(0, 0, 0), rgb(255, 255, 255)); white-space: normal;&quot;&gt;:&lt;/font&gt;&lt;span style=&quot;background-color: transparent; color: light-dark(rgb(0, 0, 0), rgb(255, 255, 255));&quot;&gt;&lt;span style=&quot;white-space: normal;&quot;&gt;void&lt;br&gt;&lt;/span&gt;&lt;/span&gt;+&lt;font style=&quot;background-color: transparent; color: light-dark(rgb(0, 0, 0), rgb(255, 255, 255)); white-space: normal;&quot;&gt; cancelLogging()&lt;/font&gt;&lt;font style=&quot;background-color: transparent; color: light-dark(rgb(0, 0, 0), rgb(255, 255, 255)); white-space: normal;&quot;&gt;:&lt;/font&gt;&lt;span style=&quot;background-color: transparent; color: light-dark(rgb(0, 0, 0), rgb(255, 255, 255));&quot;&gt;&lt;span style=&quot;white-space: normal;&quot;&gt;void&lt;br&gt;&lt;/span&gt;&lt;/span&gt;+&lt;font style=&quot;background-color: transparent; color: light-dark(rgb(0, 0, 0), rgb(255, 255, 255)); white-space: normal;&quot;&gt; showError(String message):&lt;/font&gt;&lt;span style=&quot;background-color: transparent; color: light-dark(rgb(0, 0, 0), rgb(255, 255, 255)); white-space: normal;&quot;&gt;void&amp;nbsp;&amp;nbsp;&lt;/span&gt;&lt;/font&gt;&lt;/b&gt;&lt;/pre&gt;" style="verticalAlign=top;align=left;overflow=fill;html=1;whiteSpace=wrap;" vertex="1" parent="WIyWlLk6GJQsqaUBKTNV-1">
          <mxGeometry x="-263.5" y="1390" width="315" height="280" as="geometry" />
        </mxCell>
        <mxCell id="PBNnNokdA2dlrOg4FgTL-1" value="&lt;p style=&quot;margin:0px;margin-top:4px;text-align:center;&quot;&gt;&lt;b&gt;&lt;font face=&quot;Verdana&quot;&gt;FishLog&lt;/font&gt;&lt;/b&gt;&lt;/p&gt;&lt;hr size=&quot;1&quot; style=&quot;border-style:solid;&quot;&gt;&lt;pre style=&quot;margin:0px;margin-left:4px;&quot;&gt;&lt;b&gt;&lt;font face=&quot;Verdana&quot;&gt;- logId : int&lt;br&gt;&lt;span style=&quot;font-size: 11px; text-align: center; background-color: transparent; color: light-dark(rgb(0, 0, 0), rgb(255, 255, 255));&quot; class=&quot;token keyword&quot;&gt;-&lt;/span&gt;&lt;span style=&quot;text-align: center; background-color: transparent; color: light-dark(rgb(0, 0, 0), rgb(255, 255, 255));&quot;&gt;&lt;span style=&quot;font-size: 11px;&quot;&gt; catchDate: Date&lt;br&gt;&lt;/span&gt;&lt;/span&gt;&lt;span style=&quot;text-align: center; background-color: transparent; color: light-dark(rgb(0, 0, 0), rgb(255, 255, 255));&quot;&gt;-&lt;/span&gt;&lt;span style=&quot;text-align: center; background-color: transparent; color: light-dark(rgb(0, 0, 0), rgb(255, 255, 255)); font-size: 11px;&quot;&gt; fishName:String&lt;br/&gt;&lt;/span&gt;&lt;/font&gt;&lt;/b&gt;&lt;b style=&quot;font-family: Helvetica; text-align: center; white-space-collapse: collapse;&quot;&gt;&lt;font face=&quot;Verdana&quot;&gt;-typeName:&amp;nbsp;&lt;span style=&quot;background-color: transparent; color: light-dark(rgb(0, 0, 0), rgb(255, 255, 255));&quot;&gt;String&lt;/span&gt;&lt;span style=&quot;background-color: transparent; color: light-dark(rgb(0, 0, 0), rgb(255, 255, 255));&quot;&gt;&amp;nbsp;&lt;/span&gt;&lt;/font&gt;&lt;/b&gt;&lt;b&gt;&lt;font face=&quot;Verdana&quot;&gt;&lt;span style=&quot;text-align: center; background-color: transparent; color: light-dark(rgb(0, 0, 0), rgb(255, 255, 255));&quot;&gt;&lt;span style=&quot;font-size: 11px;&quot;&gt;&amp;nbsp;&lt;br&gt;&lt;/span&gt;&lt;/span&gt;&lt;span style=&quot;text-align: center; background-color: transparent; color: light-dark(rgb(0, 0, 0), rgb(255, 255, 255));&quot;&gt;-&lt;/span&gt;&lt;span style=&quot;text-align: center; background-color: transparent; color: light-dark(rgb(0, 0, 0), rgb(255, 255, 255)); font-size: 11px;&quot;&gt;&amp;nbsp;quantity:int&lt;/span&gt;&lt;font style=&quot;text-align: center; background-color: transparent; color: light-dark(rgb(0, 0, 0), rgb(255, 255, 255)); font-size: 11px;&quot;&gt;&amp;nbsp;&lt;br&gt;&lt;/font&gt;&lt;span style=&quot;text-align: center; background-color: transparent; color: light-dark(rgb(0, 0, 0), rgb(255, 255, 255)); font-size: 11px;&quot;&gt;- isValid&lt;/span&gt;&lt;font style=&quot;text-align: center; background-color: transparent; color: light-dark(rgb(0, 0, 0), rgb(255, 255, 255)); font-size: 11px;&quot;&gt;:&lt;/font&gt;&lt;span style=&quot;text-align: center; background-color: transparent; color: light-dark(rgb(0, 0, 0), rgb(255, 255, 255));&quot;&gt;&lt;span style=&quot;font-size: 11px;&quot;&gt;boolean&lt;br&gt;&lt;/span&gt;&lt;/span&gt;&lt;span style=&quot;text-align: center; background-color: transparent; color: light-dark(rgb(0, 0, 0), rgb(255, 255, 255));&quot;&gt;- weight:double&lt;/span&gt;&lt;/font&gt;&lt;/b&gt;&lt;/pre&gt;&lt;hr size=&quot;1&quot; style=&quot;border-style:solid;&quot;&gt;&lt;p style=&quot;margin:0px;margin-left:4px;&quot;&gt;&lt;b style=&quot;&quot;&gt;&lt;font face=&quot;Verdana&quot;&gt;+ validateWeight(): boolean&lt;br&gt;+ calculateTotalWeight(): void&lt;br&gt;+ gerateLogSummary():String&lt;/font&gt;&lt;/b&gt;&lt;/p&gt;" style="verticalAlign=top;align=left;overflow=fill;html=1;whiteSpace=wrap;" vertex="1" parent="WIyWlLk6GJQsqaUBKTNV-1">
          <mxGeometry x="641.5" y="1210" width="215" height="230" as="geometry" />
        </mxCell>
        <mxCell id="PBNnNokdA2dlrOg4FgTL-2" value="&lt;p style=&quot;margin:0px;margin-top:4px;text-align:center;&quot;&gt;&lt;b&gt;&lt;font face=&quot;Verdana&quot;&gt;FishType&lt;/font&gt;&lt;/b&gt;&lt;/p&gt;&lt;hr size=&quot;1&quot; style=&quot;border-style:solid;&quot;&gt;&lt;div style=&quot;text-align: center; text-wrap-mode: nowrap;&quot;&gt;&lt;b&gt;&lt;font face=&quot;Verdana&quot;&gt;-&amp;nbsp;&lt;span style=&quot;background-color: transparent; color: light-dark(rgb(0, 0, 0), rgb(255, 255, 255));&quot;&gt;typeId: int&lt;/span&gt;&lt;span style=&quot;background-color: transparent; color: light-dark(rgb(0, 0, 0), rgb(255, 255, 255));&quot;&gt;&amp;nbsp;&lt;/span&gt;&lt;/font&gt;&lt;/b&gt;&lt;/div&gt;&lt;div style=&quot;text-align: center; text-wrap-mode: nowrap;&quot;&gt;&lt;b&gt;&lt;font face=&quot;Verdana&quot;&gt;-typeName:&amp;nbsp;&lt;span style=&quot;background-color: transparent; color: light-dark(rgb(0, 0, 0), rgb(255, 255, 255));&quot;&gt;String&lt;/span&gt;&lt;span style=&quot;background-color: transparent; color: light-dark(rgb(0, 0, 0), rgb(255, 255, 255));&quot;&gt;&amp;nbsp;&lt;/span&gt;&lt;/font&gt;&lt;/b&gt;&lt;/div&gt;&lt;div style=&quot;text-align: center; text-wrap-mode: nowrap;&quot;&gt;&lt;b&gt;&lt;font face=&quot;Verdana&quot;&gt;-List variantNames:String&lt;/font&gt;&lt;/b&gt;&lt;/div&gt;&lt;div style=&quot;text-align: center; text-wrap-mode: nowrap;&quot;&gt;&lt;b&gt;&lt;font face=&quot;Verdana&quot;&gt;- maxAllowedWeight:&lt;span style=&quot;background-color: transparent; color: light-dark(rgb(0, 0, 0), rgb(255, 255, 255));&quot;&gt;double&lt;/span&gt;&lt;span style=&quot;background-color: transparent; color: light-dark(rgb(0, 0, 0), rgb(255, 255, 255));&quot;&gt;&amp;nbsp;&lt;/span&gt;&lt;/font&gt;&lt;/b&gt;&lt;/div&gt;" style="verticalAlign=top;align=left;overflow=fill;html=1;whiteSpace=wrap;" vertex="1" parent="WIyWlLk6GJQsqaUBKTNV-1">
          <mxGeometry x="720.4" y="1560" width="230" height="110" as="geometry" />
        </mxCell>
        <mxCell id="PBNnNokdA2dlrOg4FgTL-3" value="&lt;p style=&quot;margin:0px;margin-top:4px;text-align:center;&quot;&gt;&lt;b&gt;&lt;font face=&quot;Verdana&quot;&gt;WeightController&lt;/font&gt;&lt;/b&gt;&lt;/p&gt;&lt;hr size=&quot;1&quot; style=&quot;border-style:solid;&quot;&gt;&lt;p style=&quot;margin:0px;margin-left:4px;&quot;&gt;&lt;b&gt;&lt;font face=&quot;Verdana&quot;&gt;+ weight:double&lt;/font&gt;&lt;/b&gt;&lt;/p&gt;&lt;hr size=&quot;1&quot; style=&quot;border-style:solid;&quot;&gt;&lt;p style=&quot;margin:0px;margin-left:4px;&quot;&gt;&lt;b&gt;&lt;font face=&quot;Verdana&quot;&gt;+ validateWeight( double weight, String FishType): boolean&lt;br&gt;+getWeightRegulations( String FishType)&lt;/font&gt;&lt;/b&gt;&lt;/p&gt;" style="verticalAlign=top;align=left;overflow=fill;html=1;whiteSpace=wrap;" vertex="1" parent="WIyWlLk6GJQsqaUBKTNV-1">
          <mxGeometry x="211.5" y="1880" width="322.5" height="150" as="geometry" />
        </mxCell>
        <mxCell id="PBNnNokdA2dlrOg4FgTL-4" value="&lt;p style=&quot;margin:0px;margin-top:4px;text-align:center;&quot;&gt;&lt;b&gt;ErrorHandler&lt;/b&gt;&lt;/p&gt;&lt;hr size=&quot;1&quot; style=&quot;border-style:solid;&quot;&gt;&lt;p style=&quot;margin:0px;margin-left:4px;&quot;&gt;+ Message: String&lt;/p&gt;&lt;hr size=&quot;1&quot; style=&quot;border-style:solid;&quot;&gt;&lt;p style=&quot;margin:0px;margin-left:4px;&quot;&gt;+ LogError(Exeption e): void&lt;/p&gt;" style="verticalAlign=top;align=left;overflow=fill;html=1;whiteSpace=wrap;" vertex="1" parent="WIyWlLk6GJQsqaUBKTNV-1">
          <mxGeometry x="-163.5" y="1830" width="160" height="90" as="geometry" />
        </mxCell>
        <mxCell id="PBNnNokdA2dlrOg4FgTL-5" value="&lt;p style=&quot;margin:0px;margin-top:4px;text-align:center;&quot;&gt;&lt;b&gt;Fisherman&lt;/b&gt;&lt;/p&gt;&lt;hr size=&quot;1&quot; style=&quot;border-style:solid;&quot;&gt;&lt;p style=&quot;margin:0px;margin-left:4px;&quot;&gt;+ field: Type&lt;/p&gt;" style="verticalAlign=top;align=left;overflow=fill;html=1;whiteSpace=wrap;" vertex="1" parent="WIyWlLk6GJQsqaUBKTNV-1">
          <mxGeometry x="-691.5" y="1400" width="160" height="60" as="geometry" />
        </mxCell>
        <mxCell id="PBNnNokdA2dlrOg4FgTL-6" value="&lt;p style=&quot;margin:0px;margin-top:4px;text-align:center;&quot;&gt;&lt;b&gt;&lt;font face=&quot;Verdana&quot;&gt;DateController&lt;/font&gt;&lt;/b&gt;&lt;/p&gt;&lt;hr size=&quot;1&quot; style=&quot;border-style:solid;&quot;&gt;&lt;p style=&quot;margin:0px;margin-left:4px;&quot;&gt;&lt;b&gt;&lt;font face=&quot;Verdana&quot;&gt;+ catchDate:Date&lt;/font&gt;&lt;/b&gt;&lt;/p&gt;&lt;hr size=&quot;1&quot; style=&quot;border-style:solid;&quot;&gt;&lt;p style=&quot;margin:0px;margin-left:4px;&quot;&gt;&lt;b&gt;&lt;font face=&quot;Verdana&quot;&gt;+ parseDate(String input): Date&lt;br&gt;&lt;/font&gt;&lt;/b&gt;&lt;br&gt;&lt;/p&gt;" style="verticalAlign=top;align=left;overflow=fill;html=1;whiteSpace=wrap;" vertex="1" parent="WIyWlLk6GJQsqaUBKTNV-1">
          <mxGeometry x="-91" y="2120" width="322.5" height="110" as="geometry" />
        </mxCell>
        <mxCell id="PBNnNokdA2dlrOg4FgTL-7" value="&lt;p style=&quot;margin:0px;margin-top:4px;text-align:center;&quot;&gt;&lt;b&gt;&lt;font face=&quot;Verdana&quot;&gt;QuantityController&lt;/font&gt;&lt;/b&gt;&lt;/p&gt;&lt;hr size=&quot;1&quot; style=&quot;border-style:solid;&quot;&gt;&lt;p style=&quot;margin:0px;margin-left:4px;&quot;&gt;&lt;b&gt;&lt;font face=&quot;Verdana&quot;&gt;+ quantity:int&lt;/font&gt;&lt;/b&gt;&lt;/p&gt;&lt;hr size=&quot;1&quot; style=&quot;border-style:solid;&quot;&gt;&lt;p style=&quot;margin:0px;margin-left:4px;&quot;&gt;&lt;b&gt;&lt;font face=&quot;Verdana&quot;&gt;+ validateQuantity(int quantity): boolean&lt;br&gt;&lt;br&gt;&lt;/font&gt;&lt;/b&gt;&lt;br&gt;&lt;/p&gt;" style="verticalAlign=top;align=left;overflow=fill;html=1;whiteSpace=wrap;" vertex="1" parent="WIyWlLk6GJQsqaUBKTNV-1">
          <mxGeometry x="281.5" y="1684" width="322.5" height="100" as="geometry" />
        </mxCell>
        <mxCell id="PBNnNokdA2dlrOg4FgTL-8" value="Use" style="endArrow=open;endSize=12;dashed=1;html=1;rounded=0;exitX=1;exitY=0.159;exitDx=0;exitDy=0;exitPerimeter=0;entryX=-0.002;entryY=0.062;entryDx=0;entryDy=0;entryPerimeter=0;" edge="1" parent="WIyWlLk6GJQsqaUBKTNV-1" source="PBNnNokdA2dlrOg4FgTL-5" target="PBNnNokdA2dlrOg4FgTL-0">
          <mxGeometry width="160" relative="1" as="geometry">
            <mxPoint x="-689" y="1410" as="sourcePoint" />
            <mxPoint x="-268.5" y="1410" as="targetPoint" />
          </mxGeometry>
        </mxCell>
        <mxCell id="PBNnNokdA2dlrOg4FgTL-9" value="&lt;p style=&quot;margin:0px;margin-top:4px;text-align:center;&quot;&gt;&lt;b&gt;&lt;font face=&quot;Verdana&quot;&gt;FinishLogScreen&lt;/font&gt;&lt;/b&gt;&lt;/p&gt;&lt;hr size=&quot;1&quot; style=&quot;border-style:solid;&quot;&gt;&lt;pre style=&quot;margin:0px;margin-left:4px;&quot;&gt;&lt;b&gt;&lt;font face=&quot;Verdana&quot;&gt;- logId : int&lt;br&gt;&lt;/font&gt;&lt;/b&gt;&lt;/pre&gt;&lt;hr size=&quot;1&quot; style=&quot;border-style:solid;&quot;&gt;&lt;p style=&quot;margin:0px;margin-left:4px;&quot;&gt;&lt;b style=&quot;&quot;&gt;&lt;font face=&quot;Verdana&quot;&gt;+ displayConfirmation(): boolean&lt;/font&gt;&lt;/b&gt;&lt;/p&gt;" style="verticalAlign=top;align=left;overflow=fill;html=1;whiteSpace=wrap;" vertex="1" parent="WIyWlLk6GJQsqaUBKTNV-1">
          <mxGeometry x="-648.5" y="1960" width="260" height="140" as="geometry" />
        </mxCell>
        <mxCell id="PBNnNokdA2dlrOg4FgTL-10" value="" style="endArrow=none;html=1;edgeStyle=orthogonalEdgeStyle;rounded=0;entryX=0;entryY=0;entryDx=0;entryDy=0;exitX=1.002;exitY=0.127;exitDx=0;exitDy=0;exitPerimeter=0;" edge="1" parent="WIyWlLk6GJQsqaUBKTNV-1" source="PBNnNokdA2dlrOg4FgTL-0" target="PBNnNokdA2dlrOg4FgTL-1">
          <mxGeometry relative="1" as="geometry">
            <mxPoint x="-28.5" y="1320" as="sourcePoint" />
            <mxPoint x="256.5" y="1416" as="targetPoint" />
            <Array as="points">
              <mxPoint x="52.5" y="1428" />
              <mxPoint x="171.5" y="1428" />
              <mxPoint x="171.5" y="1280" />
            </Array>
          </mxGeometry>
        </mxCell>
        <mxCell id="PBNnNokdA2dlrOg4FgTL-11" value="Creates" style="text;html=1;align=center;verticalAlign=middle;resizable=0;points=[];autosize=1;strokeColor=none;fillColor=none;" vertex="1" parent="WIyWlLk6GJQsqaUBKTNV-1">
          <mxGeometry x="111.5" y="1330" width="70" height="30" as="geometry" />
        </mxCell>
        <mxCell id="PBNnNokdA2dlrOg4FgTL-12" value="1" style="text;html=1;align=center;verticalAlign=middle;resizable=0;points=[];autosize=1;strokeColor=none;fillColor=none;" vertex="1" parent="WIyWlLk6GJQsqaUBKTNV-1">
          <mxGeometry x="275.25" y="1250" width="30" height="30" as="geometry" />
        </mxCell>
        <mxCell id="PBNnNokdA2dlrOg4FgTL-13" value="1" style="text;html=1;align=center;verticalAlign=middle;resizable=0;points=[];autosize=1;strokeColor=none;fillColor=none;" vertex="1" parent="WIyWlLk6GJQsqaUBKTNV-1">
          <mxGeometry x="70.5" y="1400" width="30" height="30" as="geometry" />
        </mxCell>
        <mxCell id="PBNnNokdA2dlrOg4FgTL-14" value="" style="endArrow=none;html=1;edgeStyle=orthogonalEdgeStyle;rounded=0;exitX=0.868;exitY=1.01;exitDx=0;exitDy=0;exitPerimeter=0;" edge="1" parent="WIyWlLk6GJQsqaUBKTNV-1" source="PBNnNokdA2dlrOg4FgTL-0" target="PBNnNokdA2dlrOg4FgTL-4">
          <mxGeometry relative="1" as="geometry">
            <mxPoint x="36.39999999999981" y="2000" as="sourcePoint" />
            <mxPoint x="-362.44999999999965" y="1901.7400000000002" as="targetPoint" />
            <Array as="points">
              <mxPoint x="9.5" y="1900" />
            </Array>
          </mxGeometry>
        </mxCell>
        <mxCell id="PBNnNokdA2dlrOg4FgTL-15" value="Has" style="text;html=1;align=center;verticalAlign=middle;resizable=0;points=[];autosize=1;strokeColor=none;fillColor=none;" vertex="1" parent="WIyWlLk6GJQsqaUBKTNV-1">
          <mxGeometry x="11.5" y="1820" width="40" height="30" as="geometry" />
        </mxCell>
        <mxCell id="PBNnNokdA2dlrOg4FgTL-16" value="" style="endArrow=none;html=1;edgeStyle=orthogonalEdgeStyle;rounded=0;exitX=0;exitY=0;exitDx=0;exitDy=0;" edge="1" parent="WIyWlLk6GJQsqaUBKTNV-1" source="PBNnNokdA2dlrOg4FgTL-7">
          <mxGeometry relative="1" as="geometry">
            <mxPoint x="251.4775000000002" y="1810" as="sourcePoint" />
            <mxPoint x="54.48000000000002" y="1580" as="targetPoint" />
            <Array as="points">
              <mxPoint x="251.5" y="1580" />
            </Array>
          </mxGeometry>
        </mxCell>
        <mxCell id="PBNnNokdA2dlrOg4FgTL-17" value="Validates" style="text;html=1;align=center;verticalAlign=middle;resizable=0;points=[];autosize=1;strokeColor=none;fillColor=none;" vertex="1" parent="WIyWlLk6GJQsqaUBKTNV-1">
          <mxGeometry x="255.25" y="1580" width="70" height="30" as="geometry" />
        </mxCell>
        <mxCell id="PBNnNokdA2dlrOg4FgTL-18" value="1" style="text;html=1;align=center;verticalAlign=middle;resizable=0;points=[];autosize=1;strokeColor=none;fillColor=none;" vertex="1" parent="WIyWlLk6GJQsqaUBKTNV-1">
          <mxGeometry x="51.5" y="1550" width="30" height="30" as="geometry" />
        </mxCell>
        <mxCell id="PBNnNokdA2dlrOg4FgTL-19" value="1" style="text;html=1;align=center;verticalAlign=middle;resizable=0;points=[];autosize=1;strokeColor=none;fillColor=none;" vertex="1" parent="WIyWlLk6GJQsqaUBKTNV-1">
          <mxGeometry x="221.5" y="1640" width="30" height="30" as="geometry" />
        </mxCell>
        <mxCell id="PBNnNokdA2dlrOg4FgTL-20" value="" style="endArrow=none;html=1;edgeStyle=orthogonalEdgeStyle;rounded=0;exitX=0.002;exitY=0.163;exitDx=0;exitDy=0;exitPerimeter=0;entryX=0.002;entryY=0.595;entryDx=0;entryDy=0;entryPerimeter=0;" edge="1" parent="WIyWlLk6GJQsqaUBKTNV-1" source="PBNnNokdA2dlrOg4FgTL-6" target="PBNnNokdA2dlrOg4FgTL-0">
          <mxGeometry relative="1" as="geometry">
            <mxPoint x="-292.0024999999998" y="1949" as="sourcePoint" />
            <mxPoint x="-402.21500000000015" y="1539.6799999999998" as="targetPoint" />
            <Array as="points">
              <mxPoint x="-292.5" y="2138" />
              <mxPoint x="-292.5" y="1557" />
            </Array>
          </mxGeometry>
        </mxCell>
        <mxCell id="PBNnNokdA2dlrOg4FgTL-21" value="Validates" style="text;html=1;align=center;verticalAlign=middle;resizable=0;points=[];autosize=1;strokeColor=none;fillColor=none;" vertex="1" parent="WIyWlLk6GJQsqaUBKTNV-1">
          <mxGeometry x="-278.5" y="1800" width="70" height="30" as="geometry" />
        </mxCell>
        <mxCell id="PBNnNokdA2dlrOg4FgTL-22" value="1" style="text;html=1;align=center;verticalAlign=middle;resizable=0;points=[];autosize=1;strokeColor=none;fillColor=none;" vertex="1" parent="WIyWlLk6GJQsqaUBKTNV-1">
          <mxGeometry x="-328.5" y="1550" width="30" height="30" as="geometry" />
        </mxCell>
        <mxCell id="PBNnNokdA2dlrOg4FgTL-23" value="1" style="text;html=1;align=center;verticalAlign=middle;resizable=0;points=[];autosize=1;strokeColor=none;fillColor=none;" vertex="1" parent="WIyWlLk6GJQsqaUBKTNV-1">
          <mxGeometry x="-148.5" y="2090" width="30" height="30" as="geometry" />
        </mxCell>
        <mxCell id="PBNnNokdA2dlrOg4FgTL-24" value="" style="endArrow=none;html=1;edgeStyle=orthogonalEdgeStyle;rounded=0;entryX=1;entryY=0.5;entryDx=0;entryDy=0;exitX=-0.008;exitY=0.194;exitDx=0;exitDy=0;exitPerimeter=0;" edge="1" parent="WIyWlLk6GJQsqaUBKTNV-1" target="PBNnNokdA2dlrOg4FgTL-0">
          <mxGeometry relative="1" as="geometry">
            <mxPoint x="718.56" y="1629.9" as="sourcePoint" />
            <mxPoint x="548.505" y="1498.4499999999998" as="targetPoint" />
            <Array as="points">
              <mxPoint x="718.5" y="1632" />
              <mxPoint x="689.5" y="1632" />
              <mxPoint x="689.5" y="1619" />
              <mxPoint x="548.5" y="1619" />
              <mxPoint x="548.5" y="1530" />
            </Array>
          </mxGeometry>
        </mxCell>
        <mxCell id="PBNnNokdA2dlrOg4FgTL-25" value="References" style="text;html=1;align=center;verticalAlign=middle;resizable=0;points=[];autosize=1;strokeColor=none;fillColor=none;" vertex="1" parent="WIyWlLk6GJQsqaUBKTNV-1">
          <mxGeometry x="548.5" y="1580" width="80" height="30" as="geometry" />
        </mxCell>
        <mxCell id="PBNnNokdA2dlrOg4FgTL-26" value="1" style="text;html=1;align=center;verticalAlign=middle;resizable=0;points=[];autosize=1;strokeColor=none;fillColor=none;" vertex="1" parent="WIyWlLk6GJQsqaUBKTNV-1">
          <mxGeometry x="51.5" y="1500" width="30" height="30" as="geometry" />
        </mxCell>
        <mxCell id="PBNnNokdA2dlrOg4FgTL-27" value="n" style="text;html=1;align=center;verticalAlign=middle;resizable=0;points=[];autosize=1;strokeColor=none;fillColor=none;" vertex="1" parent="WIyWlLk6GJQsqaUBKTNV-1">
          <mxGeometry x="690.4" y="1590" width="30" height="30" as="geometry" />
        </mxCell>
        <mxCell id="PBNnNokdA2dlrOg4FgTL-28" value="1" style="text;html=1;align=center;verticalAlign=middle;resizable=0;points=[];autosize=1;strokeColor=none;fillColor=none;" vertex="1" parent="WIyWlLk6GJQsqaUBKTNV-1">
          <mxGeometry x="611.5" y="1310" width="30" height="30" as="geometry" />
        </mxCell>
        <mxCell id="PBNnNokdA2dlrOg4FgTL-29" value="" style="endArrow=none;html=1;edgeStyle=orthogonalEdgeStyle;rounded=0;exitX=0.993;exitY=0.419;exitDx=0;exitDy=0;exitPerimeter=0;" edge="1" parent="WIyWlLk6GJQsqaUBKTNV-1" source="PBNnNokdA2dlrOg4FgTL-7" target="PBNnNokdA2dlrOg4FgTL-1">
          <mxGeometry relative="1" as="geometry">
            <mxPoint x="618.52" y="1850" as="sourcePoint" />
            <mxPoint x="531.5" y="1310" as="targetPoint" />
            <Array as="points">
              <mxPoint x="1011.5" y="1832" />
              <mxPoint x="1011.5" y="1480" />
              <mxPoint x="591.5" y="1480" />
              <mxPoint x="591.5" y="1310" />
            </Array>
          </mxGeometry>
        </mxCell>
        <mxCell id="PBNnNokdA2dlrOg4FgTL-30" value="1" style="text;html=1;align=center;verticalAlign=middle;resizable=0;points=[];autosize=1;strokeColor=none;fillColor=none;" vertex="1" parent="WIyWlLk6GJQsqaUBKTNV-1">
          <mxGeometry x="551.5" y="1290" width="30" height="30" as="geometry" />
        </mxCell>
        <mxCell id="PBNnNokdA2dlrOg4FgTL-31" value="1" style="text;html=1;align=center;verticalAlign=middle;resizable=0;points=[];autosize=1;strokeColor=none;fillColor=none;" vertex="1" parent="WIyWlLk6GJQsqaUBKTNV-1">
          <mxGeometry x="581.5" y="1790" width="30" height="30" as="geometry" />
        </mxCell>
        <mxCell id="PBNnNokdA2dlrOg4FgTL-32" value="&lt;b&gt;&lt;font face=&quot;Verdana&quot;&gt;Finalises&lt;/font&gt;&lt;/b&gt;" style="text;html=1;align=center;verticalAlign=middle;resizable=0;points=[];autosize=1;strokeColor=none;fillColor=none;" vertex="1" parent="WIyWlLk6GJQsqaUBKTNV-1">
          <mxGeometry x="726.5" y="1800" width="80" height="30" as="geometry" />
        </mxCell>
        <mxCell id="PBNnNokdA2dlrOg4FgTL-33" value="" style="endArrow=none;html=1;edgeStyle=orthogonalEdgeStyle;rounded=0;exitX=0;exitY=0.348;exitDx=0;exitDy=0;exitPerimeter=0;" edge="1" parent="WIyWlLk6GJQsqaUBKTNV-1" source="PBNnNokdA2dlrOg4FgTL-1">
          <mxGeometry relative="1" as="geometry">
            <mxPoint x="610.5" y="1290.04" as="sourcePoint" />
            <mxPoint x="516.5" y="1530" as="targetPoint" />
            <Array as="points">
              <mxPoint x="551.5" y="1290" />
              <mxPoint x="551.5" y="1452" />
              <mxPoint x="516.5" y="1452" />
            </Array>
          </mxGeometry>
        </mxCell>
        <mxCell id="PBNnNokdA2dlrOg4FgTL-34" value="" style="endArrow=none;html=1;edgeStyle=orthogonalEdgeStyle;rounded=0;exitX=1;exitY=0.929;exitDx=0;exitDy=0;exitPerimeter=0;entryX=0;entryY=0;entryDx=0;entryDy=0;" edge="1" parent="WIyWlLk6GJQsqaUBKTNV-1" source="PBNnNokdA2dlrOg4FgTL-0" target="PBNnNokdA2dlrOg4FgTL-3">
          <mxGeometry relative="1" as="geometry">
            <mxPoint x="97.14500000000021" y="1648.01" as="sourcePoint" />
            <mxPoint x="179.98000000000002" y="1858.97" as="targetPoint" />
          </mxGeometry>
        </mxCell>
        <mxCell id="PBNnNokdA2dlrOg4FgTL-35" value="1" style="text;html=1;align=center;verticalAlign=middle;resizable=0;points=[];autosize=1;strokeColor=none;fillColor=none;" vertex="1" parent="WIyWlLk6GJQsqaUBKTNV-1">
          <mxGeometry x="67.75" y="1620" width="30" height="30" as="geometry" />
        </mxCell>
        <mxCell id="PBNnNokdA2dlrOg4FgTL-36" value="1" style="text;html=1;align=center;verticalAlign=middle;resizable=0;points=[];autosize=1;strokeColor=none;fillColor=none;" vertex="1" parent="WIyWlLk6GJQsqaUBKTNV-1">
          <mxGeometry x="181.5" y="1830" width="30" height="30" as="geometry" />
        </mxCell>
        <mxCell id="PBNnNokdA2dlrOg4FgTL-37" value="Checks" style="text;html=1;align=center;verticalAlign=middle;resizable=0;points=[];autosize=1;strokeColor=none;fillColor=none;" vertex="1" parent="WIyWlLk6GJQsqaUBKTNV-1">
          <mxGeometry x="116.5" y="1670" width="60" height="30" as="geometry" />
        </mxCell>
        <mxCell id="PBNnNokdA2dlrOg4FgTL-38" value="" style="endArrow=none;html=1;edgeStyle=orthogonalEdgeStyle;rounded=0;entryX=0.404;entryY=1.048;entryDx=0;entryDy=0;entryPerimeter=0;" edge="1" parent="WIyWlLk6GJQsqaUBKTNV-1" target="PBNnNokdA2dlrOg4FgTL-4">
          <mxGeometry relative="1" as="geometry">
            <mxPoint x="211.5" y="1961" as="sourcePoint" />
            <mxPoint x="662.48" y="2168.9700000000003" as="targetPoint" />
          </mxGeometry>
        </mxCell>
        <mxCell id="PBNnNokdA2dlrOg4FgTL-39" value="OverWeight" style="text;html=1;align=center;verticalAlign=middle;resizable=0;points=[];autosize=1;strokeColor=none;fillColor=none;" vertex="1" parent="WIyWlLk6GJQsqaUBKTNV-1">
          <mxGeometry x="15.5" y="1970" width="90" height="30" as="geometry" />
        </mxCell>
        <mxCell id="PBNnNokdA2dlrOg4FgTL-40" value="&lt;b&gt;&lt;font face=&quot;Verdana&quot;&gt;Finalises&lt;/font&gt;&lt;/b&gt;" style="text;html=1;align=center;verticalAlign=middle;resizable=0;points=[];autosize=1;strokeColor=none;fillColor=none;" vertex="1" parent="WIyWlLk6GJQsqaUBKTNV-1">
          <mxGeometry x="761.5" y="1960" width="80" height="30" as="geometry" />
        </mxCell>
        <mxCell id="PBNnNokdA2dlrOg4FgTL-41" value="" style="endArrow=none;html=1;edgeStyle=orthogonalEdgeStyle;rounded=0;entryX=0.992;entryY=0.371;entryDx=0;entryDy=0;entryPerimeter=0;" edge="1" parent="WIyWlLk6GJQsqaUBKTNV-1" target="PBNnNokdA2dlrOg4FgTL-1">
          <mxGeometry relative="1" as="geometry">
            <mxPoint x="530.4" y="2000" as="sourcePoint" />
            <mxPoint x="690.4" y="2000" as="targetPoint" />
            <Array as="points">
              <mxPoint x="530.5" y="2001" />
              <mxPoint x="1151.5" y="2001" />
              <mxPoint x="1151.5" y="1295" />
            </Array>
          </mxGeometry>
        </mxCell>
        <mxCell id="PBNnNokdA2dlrOg4FgTL-42" value="1" style="text;html=1;align=center;verticalAlign=middle;resizable=0;points=[];autosize=1;strokeColor=none;fillColor=none;" vertex="1" parent="WIyWlLk6GJQsqaUBKTNV-1">
          <mxGeometry x="541.5" y="1960" width="30" height="30" as="geometry" />
        </mxCell>
        <mxCell id="PBNnNokdA2dlrOg4FgTL-43" value="1" style="text;html=1;align=center;verticalAlign=middle;resizable=0;points=[];autosize=1;strokeColor=none;fillColor=none;" vertex="1" parent="WIyWlLk6GJQsqaUBKTNV-1">
          <mxGeometry x="881.5" y="1260" width="30" height="30" as="geometry" />
        </mxCell>
        <mxCell id="PBNnNokdA2dlrOg4FgTL-44" value="" style="endArrow=none;html=1;edgeStyle=orthogonalEdgeStyle;rounded=0;exitX=0.86;exitY=-0.02;exitDx=0;exitDy=0;exitPerimeter=0;entryX=0.002;entryY=0.595;entryDx=0;entryDy=0;entryPerimeter=0;" edge="1" parent="WIyWlLk6GJQsqaUBKTNV-1" source="PBNnNokdA2dlrOg4FgTL-9">
          <mxGeometry relative="1" as="geometry">
            <mxPoint x="-91" y="2131" as="sourcePoint" />
            <mxPoint x="-263" y="1460" as="targetPoint" />
            <Array as="points">
              <mxPoint x="-424.5" y="1960" />
              <mxPoint x="-428.5" y="1960" />
              <mxPoint x="-428.5" y="1460" />
            </Array>
          </mxGeometry>
        </mxCell>
        <mxCell id="PBNnNokdA2dlrOg4FgTL-45" value="&lt;b&gt;Confirm Finish&lt;/b&gt;" style="text;html=1;align=center;verticalAlign=middle;resizable=0;points=[];autosize=1;strokeColor=none;fillColor=none;" vertex="1" parent="WIyWlLk6GJQsqaUBKTNV-1">
          <mxGeometry x="-543.5" y="1754" width="110" height="30" as="geometry" />
        </mxCell>
        <mxCell id="PBNnNokdA2dlrOg4FgTL-46" value="" style="endArrow=none;html=1;edgeStyle=orthogonalEdgeStyle;rounded=0;entryX=0.99;entryY=0.095;entryDx=0;entryDy=0;entryPerimeter=0;" edge="1" parent="WIyWlLk6GJQsqaUBKTNV-1" target="PBNnNokdA2dlrOg4FgTL-1">
          <mxGeometry relative="1" as="geometry">
            <mxPoint x="231.5" y="2205" as="sourcePoint" />
            <mxPoint x="901.5" y="1510" as="targetPoint" />
            <Array as="points">
              <mxPoint x="1271.5" y="2206" />
              <mxPoint x="1271.5" y="1232" />
            </Array>
          </mxGeometry>
        </mxCell>
        <mxCell id="PBNnNokdA2dlrOg4FgTL-47" value="1" style="text;html=1;align=center;verticalAlign=middle;resizable=0;points=[];autosize=1;strokeColor=none;fillColor=none;" vertex="1" parent="WIyWlLk6GJQsqaUBKTNV-1">
          <mxGeometry x="261.5" y="2170" width="30" height="30" as="geometry" />
        </mxCell>
        <mxCell id="PBNnNokdA2dlrOg4FgTL-48" value="&lt;b&gt;&lt;font face=&quot;Verdana&quot;&gt;Finalises&lt;/font&gt;&lt;/b&gt;" style="text;html=1;align=center;verticalAlign=middle;resizable=0;points=[];autosize=1;strokeColor=none;fillColor=none;" vertex="1" parent="WIyWlLk6GJQsqaUBKTNV-1">
          <mxGeometry x="709" y="2170" width="80" height="30" as="geometry" />
        </mxCell>
        <mxCell id="PBNnNokdA2dlrOg4FgTL-49" value="1" style="text;html=1;align=center;verticalAlign=middle;resizable=0;points=[];autosize=1;strokeColor=none;fillColor=none;" vertex="1" parent="WIyWlLk6GJQsqaUBKTNV-1">
          <mxGeometry x="871.5" y="1200" width="30" height="30" as="geometry" />
        </mxCell>
      </root>
    </mxGraphModel>
  </diagram>
</mxfile>
